<?xml version="1.0" encoding="utf-8"?>
<!-- Generator: Adobe Illustrator 16.0.0, SVG Export Plug-In . SVG Version: 6.00 Build 0)  -->
<!DOCTYPE svg PUBLIC "-//W3C//DTD SVG 1.1//EN" "http://www.w3.org/Graphics/SVG/1.1/DTD/svg11.dtd">
<svg version="1.1" id="Layer_2" xmlns="http://www.w3.org/2000/svg" xmlns:xlink="http://www.w3.org/1999/xlink" x="0px" y="0px"
	 width="312px" height="290px" viewBox="0 0 312 290" enable-background="new 0 0 312 290" xml:space="preserve">
<g>
	<g>
		<g>
			<path fill="#604346" d="M301.146,165.84c-0.023,0.193-0.108,0.883-0.251,2.049c-0.096,0.733-0.272,1.88-0.467,3.1
				c-0.232,1.188-0.479,2.559-0.881,4.125c-0.78,3.114-1.972,7.036-4.345,11.429c-1.194,2.184-2.691,4.47-4.584,6.687
				c-1.888,2.216-4.175,4.345-6.785,6.2c-5.23,3.766-11.628,6.205-18.291,7.634c-6.693,1.412-13.732,1.943-21.07,2.063
				c-7.339,0.066-14.988-0.156-22.973-0.628c-7.985-0.355-16.301-0.966-24.949-1.381c-17.299-0.865-35.896-1.291-55.424-0.071
				c-9.788,0.609-19.855,1.577-30.216,2.653c-10.369,1.106-21.013,2.311-32.164,3.135c-5.586,0.389-11.292,0.624-17.245,0.535
				c-5.948-0.12-12.151-0.569-18.715-2.17c-3.274-0.817-6.644-1.916-9.996-3.57c-3.341-1.646-6.665-3.818-9.606-6.565
				c-2.936-2.748-5.438-6.017-7.38-9.449c-1.933-3.442-3.296-7.022-4.278-10.538c-0.98-3.523-1.582-6.996-1.962-10.393
				c-0.393-3.346-0.468-6.892-0.56-9.626c-0.031-3.327-0.021-6.44,0.142-9.595c0.129-3.156,0.397-6.313,0.738-9.472
				c1.428-12.622,4.476-25.201,9.165-37.218c4.688-12.014,11.002-23.458,18.711-33.861c7.687-10.425,16.78-19.791,26.848-27.834
				c20.16-16.074,44.403-26.544,68.862-30.345c6.11-0.955,12.223-1.595,18.289-1.771c1.516-0.072,3.029-0.056,4.538-0.084
				l0.804-0.004l0.497,0.006l0.992,0.013l1.98,0.025c1.577,0.06,3.213,0.102,4.729,0.191c1.488,0.117,2.977,0.192,4.452,0.35
				c11.827,1.079,23.246,3.538,33.884,7.196c5.321,1.821,10.467,3.893,15.382,6.241c4.926,2.322,9.639,4.879,14.11,7.643
				c8.976,5.477,16.94,11.812,24.011,18.418c7.063,6.629,13.098,13.705,18.24,20.812c5.134,7.12,9.376,14.292,12.748,21.309
				c6.763,14.042,10.324,27.204,12.027,38.112c0.888,5.456,1.33,10.366,1.521,14.634c0.177,4.269,0.219,7.894,0.09,10.826
				c-0.098,2.932-0.252,5.173-0.394,6.678c-0.133,1.505-0.202,2.282-0.202,2.282L301.146,165.84z M282.502,164.479l0.002-0.129
				c0,0,0.008-0.667,0.022-1.958c0.024-1.291,0.008-3.206-0.1-5.694c-0.203-4.968-0.874-12.275-3.191-21.194
				c-2.351-8.884-6.431-19.396-13.403-30.011c-6.892-10.627-16.638-21.321-29.073-30.412c-12.398-9.117-27.467-16.555-44.116-21.144
				c-16.637-4.567-34.976-6.183-53.447-3.613c-9.211,1.351-18.432,3.743-27.373,7.278c-2.228,0.9-4.448,1.847-6.634,2.887
				c-2.207,1-4.365,2.118-6.522,3.258c-4.282,2.336-8.465,4.93-12.489,7.803c-8.091,5.691-15.528,12.508-22.146,20.143
				c-1.635,1.924-3.247,3.88-4.761,5.915c-1.546,2.013-3.014,4.089-4.433,6.205c-2.827,4.238-5.381,8.676-7.677,13.261
				c-4.618,9.162-8.022,18.993-10.156,29.13c-0.512,2.538-0.99,5.088-1.351,7.658c-0.396,2.567-0.649,5.191-0.881,7.591
				c-0.191,2.995-0.371,5.178-0.341,7.534c0.021,2.301,0.185,4.499,0.519,6.515c0.334,2.017,0.831,3.849,1.497,5.448
				c0.674,1.595,1.52,2.96,2.566,4.21c1.061,1.234,2.381,2.343,3.976,3.354c1.591,1.01,3.5,1.868,5.579,2.604
				c4.177,1.468,9.056,2.357,14.086,2.91c5.042,0.575,10.279,0.72,15.528,0.792c10.525,0.114,21.143-0.408,31.589-0.788
				c10.455-0.438,20.764-0.836,30.841-0.943c2.519-0.037,5.023-0.06,7.512-0.054c2.47-0.001,5.03,0.023,7.409,0.07
				c4.92,0.088,9.712,0.275,14.438,0.43c9.439,0.354,18.517,0.909,27.196,1.335c8.677,0.457,16.962,0.756,24.777,0.959
				c7.816,0.08,15.175,0.073,21.92-0.476c6.733-0.516,12.871-1.434,18.026-2.96c5.155-1.515,9.26-3.591,12.076-6.003
				c2.851-2.391,4.573-5.055,5.758-7.69c1.171-2.639,1.774-5.225,2.138-7.396c0.194-1.079,0.291-2.08,0.396-2.93
				c0.062-0.821,0.113-1.513,0.154-2.069C282.457,165.421,282.486,164.812,282.502,164.479z"/>
		</g>
		<path fill="#F2C77B" d="M291.96,165.23c-3.5,51.775-60.441,40.775-135,40.775s-135,16-135-40.775c0-74.559,60.441-135,135-135
			S296.988,90.842,291.96,165.23z"/>
		<g>
			<path fill="#F2C77B" d="M249.751,117.583c0,0,0.251-12.4,21.584-22.947c0,0,16.817,12.117,17.242,33.785
				c0,0,46.092,76.001-45.575,83.334c0,0-12.001,1.334-35.334-2"/>
			<path fill="#604346" d="M248.294,117.534c-0.001-0.915,0.101-1.607,0.234-2.373c0.138-0.745,0.325-1.471,0.545-2.185
				c0.446-1.423,1.022-2.799,1.711-4.107c1.369-2.628,3.144-5,5.103-7.176c0.501-0.529,0.993-1.078,1.518-1.582
				c0.516-0.518,1.043-1.023,1.585-1.509c1.072-0.989,2.196-1.908,3.337-2.809c1.149-0.883,2.323-1.732,3.521-2.543
				c1.199-0.806,2.421-1.571,3.655-2.317l0.001,0l0.132-0.063c1.384-0.671,2.971-0.457,4.116,0.416
				c0.496,0.379,0.797,0.635,1.162,0.949c0.35,0.302,0.687,0.604,1.017,0.91c0.658,0.613,1.299,1.233,1.911,1.874
				c1.233,1.274,2.391,2.606,3.48,3.991c1.091,1.384,2.112,2.82,3.055,4.311c0.943,1.489,1.812,3.026,2.603,4.604
				c0.382,0.797,0.768,1.59,1.107,2.406c0.363,0.805,0.665,1.639,0.984,2.461c0.597,1.666,1.113,3.359,1.525,5.079
				c0.195,0.862,0.386,1.726,0.535,2.597c0.146,0.872,0.292,1.742,0.38,2.621c0.117,0.874,0.171,1.755,0.23,2.634
				c0.063,0.878,0.054,1.759,0.081,2.637v0.002l-0.47-1.619c2.062,2.924,3.71,5.802,5.301,8.854
				c1.542,3.042,2.964,6.164,4.151,9.397c1.202,3.228,2.243,6.544,2.996,9.967c0.766,3.414,1.337,6.925,1.514,10.511
				c0.166,3.586,0.068,7.243-0.529,10.901c-0.61,3.646-1.641,7.299-3.254,10.729c-0.771,1.729-1.725,3.374-2.727,4.982
				c-1.059,1.571-2.187,3.097-3.439,4.503c-2.484,2.832-5.32,5.292-8.335,7.376c-3.019,2.082-6.201,3.82-9.474,5.221
				c-3.27,1.406-6.598,2.572-9.954,3.476c-3.354,0.914-6.726,1.677-10.109,2.182c-3.38,0.562-6.76,0.921-10.134,1.219
				c-1.667,0.115-3.413,0.248-5.016,0.308l-1.382,0.046l-1.292,0.001c-0.861,0-1.725,0.008-2.568-0.029
				c-1.699-0.051-3.396-0.096-5.072-0.223c-1.681-0.108-3.361-0.226-5.023-0.417c-1.665-0.184-3.335-0.325-4.99-0.544l-4.953-0.709
				c-3.299-0.472-6.554-1.167-9.819-1.763l0.85-5.939l4.857,0.313c1.618,0.09,3.229,0.263,4.845,0.302l4.837,0.217
				c1.609,0.076,3.216,0.073,4.821,0.115c1.606,0.055,3.204,0.012,4.8,0.002c1.6,0.016,3.181-0.051,4.76-0.109
				c0.795-0.018,1.569-0.078,2.347-0.131l1.164-0.078l1.073-0.108l4.776-0.577c3.141-0.436,6.266-0.923,9.326-1.59
				c3.072-0.636,6.082-1.417,9.027-2.312c2.95-0.89,5.79-1.996,8.504-3.264c2.704-1.285,5.296-2.71,7.648-4.388
				c4.722-3.339,8.455-7.627,10.777-12.657c1.175-2.508,2.028-5.193,2.544-8.003c0.572-2.796,0.767-5.726,0.744-8.688
				c-0.072-2.965-0.292-5.982-0.786-9c-0.494-3.016-1.143-6.044-1.954-9.055c-0.841-3.001-1.761-6.012-2.861-8.969
				c-0.54-1.481-1.097-2.963-1.7-4.422c-0.586-1.445-1.239-2.956-1.841-4.279l-0.282-0.623c-0.146-0.32-0.204-0.668-0.188-0.997
				v-0.001c-0.062-0.752-0.082-1.505-0.173-2.252c-0.087-0.747-0.163-1.494-0.299-2.232c-0.106-0.742-0.268-1.475-0.423-2.208
				c-0.159-0.731-0.355-1.455-0.553-2.176c-0.416-1.438-0.918-2.849-1.485-4.234c-0.305-0.684-0.587-1.376-0.928-2.045
				c-0.318-0.678-0.679-1.336-1.031-1.997c-0.734-1.308-1.531-2.582-2.392-3.813c-0.859-1.232-1.788-2.418-2.771-3.555
				c-0.982-1.138-2.02-2.227-3.105-3.25c-0.539-0.516-1.096-1.006-1.654-1.481l-0.841-0.686c-0.261-0.208-0.6-0.46-0.759-0.567
				l4.248,0.352l-0.001,0c-1.2,0.48-2.394,0.979-3.568,1.514c-1.17,0.54-2.322,1.113-3.456,1.72c-1.12,0.621-2.235,1.26-3.302,1.961
				c-0.54,0.343-1.066,0.704-1.583,1.076c-0.528,0.361-1.02,0.759-1.529,1.144c-1.981,1.583-3.823,3.35-5.332,5.36
				c-0.76,1.001-1.425,2.064-1.987,3.173c-0.275,0.555-0.527,1.122-0.735,1.695c-0.204,0.553-0.385,1.201-0.465,1.648
				L248.294,117.534z"/>
		</g>
		<g>
			<path fill="#604346" d="M112.92,94.184c0,0,0.257,0.094,0.741,0.271c0.482,0.179,1.186,0.416,2.121,0.824
				c0.939,0.384,2.025,0.881,3.269,1.501c1.238,0.623,2.626,1.361,4.067,2.293c1.447,0.922,2.982,1.988,4.514,3.242
				c1.529,1.253,3.112,2.636,4.573,4.243c2.953,3.181,5.648,7.02,7.733,11.173c1.042,2.077,1.893,4.241,2.622,6.4
				c0.719,2.162,1.315,4.326,1.75,6.444c0.427,2.119,0.723,4.187,0.913,6.15c0.184,1.963,0.307,3.822,0.302,5.537
				c0.001,0.428,0.003,0.848,0.005,1.258c-0.014,0.607-0.011,0.766-0.05,1.306c-0.069,1.025-0.215,1.811-0.39,2.628
				c-0.379,1.592-0.922,2.937-1.513,3.994c-0.587,1.061-1.19,1.852-1.695,2.402c-0.259,0.278-0.466,0.484-0.652,0.642
				c-0.175,0.149-0.266,0.228-0.266,0.228c-1.253,1.066-3.134,0.916-4.202-0.337c-0.992-1.165-0.932-2.873,0.089-3.966l0.354-0.375
				c0,0,0.074-0.078,0.212-0.225c0.183-0.21,0.498-0.627,0.826-1.251c0.328-0.624,0.66-1.459,0.89-2.467
				c0.1-0.487,0.198-1.105,0.224-1.576c0.023-0.205,0.029-0.816,0.029-0.994c-0.01-0.376-0.02-0.761-0.03-1.153
				c-0.049-1.571-0.128-3.269-0.295-5.054c-0.158-1.786-0.446-3.649-0.788-5.563c-0.333-1.917-0.809-3.867-1.391-5.815
				c-0.581-1.949-1.313-3.879-2.131-5.771c-1.647-3.777-3.846-7.303-6.324-10.285c-1.238-1.491-2.528-2.862-3.83-4.088
				c-1.293-1.236-2.613-2.308-3.871-3.249c-1.258-0.941-2.458-1.752-3.547-2.435c-1.087-0.68-2.073-1.25-2.873-1.67
				c-0.787-0.434-1.473-0.777-1.934-1.004c-0.46-0.23-0.706-0.352-0.706-0.352c-0.783-0.392-1.1-1.343-0.709-2.126
				C111.323,94.235,112.173,93.91,112.92,94.184z"/>
		</g>
		<g>
			<path fill="#604346" d="M75.902,210.519c0,0,5.321-0.631,14.632-1.733c4.664-0.546,10.324-1.185,16.83-1.788
				c6.502-0.652,13.856-1.19,21.892-1.646c8.039-0.356,16.767-0.623,26.002-0.42c9.233,0.162,18.982,0.536,29.057,0.976
				c2.517,0.116,5.054,0.234,7.61,0.353c2.524,0.088,5.268,0.335,7.354,0.178c4.428-0.306,8.513-2.08,11.574-5.041
				c3.083-2.949,5.238-6.978,6.378-11.335c1.137-4.362,1.305-9.059,0.418-13.517c-0.441-2.229-1.144-4.395-2.105-6.424
				c-0.935-2.044-2.147-3.938-3.56-5.659c-2.831-3.441-6.532-6.135-10.716-7.961c-4.187-1.845-8.833-2.773-13.533-3.159
				c-1.176-0.104-2.362-0.143-3.547-0.177c-1.263-0.025-2.521-0.052-3.776-0.077c-2.513-0.018-4.932-0.049-7.41-0.03
				c-9.833,0.081-19.33,0.72-28.252,2.193c-8.942,1.388-17.254,3.688-25.208,5.482c-3.974,0.891-7.883,1.593-11.656,1.948
				c-1.884,0.189-3.736,0.267-5.534,0.295c-0.907-0.002-1.77,0-2.674-0.043c-0.843-0.07-1.672-0.141-2.489-0.209
				c-6.679-0.652-12.396-1.832-16.934-3.474c-4.524-1.652-7.815-3.681-9.711-5.484c-0.96-0.885-1.592-1.681-1.976-2.251
				c-0.385-0.57-0.528-0.92-0.54-0.944c-0.11-0.248,0-0.538,0.248-0.648s0.537,0.001,0.647,0.248
				c-0.033-0.067,0.552,1.118,2.46,2.614c1.882,1.496,5.091,3.228,9.532,4.32c4.418,1.114,10.026,1.72,16.382,1.546
				c1.592-0.053,3.235-0.107,4.927-0.164c1.665-0.096,3.374-0.233,5.123-0.482c3.499-0.474,7.151-1.278,10.973-2.3
				c3.822-1.001,7.816-2.219,11.999-3.441c4.188-1.202,8.561-2.432,13.116-3.529c9.104-2.215,18.926-3.906,29.141-4.755
				c2.533-0.227,5.174-0.393,7.755-0.495c1.301-0.041,2.492-0.102,3.895-0.129c1.382,0.003,2.769,0.014,4.169,0.101
				c5.586,0.308,11.351,1.408,16.863,3.73c5.485,2.318,10.718,5.914,14.649,10.741c3.97,4.781,6.645,10.615,7.777,16.665
				c1.152,6.046,0.9,12.345-0.944,18.225c-1.811,5.857-5.228,11.4-10.222,15.279c-2.479,1.937-5.322,3.405-8.292,4.292
				c-2.98,0.872-6.022,1.185-8.992,1.012c-0.758-0.058-1.605-0.105-2.185-0.215l-0.956-0.142c-0.235-0.025-0.134-0.02-0.217-0.03
				l-0.119-0.021l-0.237-0.042l-0.474-0.085c-1.264-0.225-2.523-0.449-3.779-0.673c-2.511-0.458-5.001-0.862-7.476-1.282
				c-9.883-1.674-19.482-2.872-28.635-3.427c-9.148-0.533-17.827-0.677-25.833-0.423c-8.007,0.232-15.334,0.806-21.816,1.424
				c-6.476,0.679-12.114,1.372-16.731,2.084c-4.625,0.634-8.25,1.319-10.722,1.74c-2.47,0.446-3.788,0.685-3.788,0.685
				c-0.68,0.123-1.332-0.328-1.454-1.009c-0.123-0.68,0.329-1.331,1.009-1.454C75.846,210.525,75.878,210.521,75.902,210.519z"/>
		</g>
		<path fill="#DFAC71" d="M143.279,30.654c0,0-13.491,33.269-8.991,46.769c0,0-14.93-10.219-11.191-43.192
			C123.097,34.23,133.748,31.265,143.279,30.654z"/>
		<path fill="#DFAC71" d="M196.338,35.742c0,0-28.67,16.014-36.336,49.348c0,0-14.07-21,8.207-54.639
			C168.209,30.451,181.501,31.277,196.338,35.742z"/>
		<path fill="#DFAC71" d="M216.187,43.307c0,0-29.519,15.903-37.852,48.116c0,0,24.209-28.028,62.334-33.403
			C240.669,58.02,227.917,48.189,216.187,43.307z"/>
		<path fill="#DFAC71" d="M103.331,40.998c0,0,6.441,29.925,14.004,36.425c0,0-24.886-11.295-25.443-30.824
			C91.892,46.599,98.265,43.053,103.331,40.998z"/>
		<g>
			<path fill="#604346" d="M173,145.398c0.325-1.074,0.672-2.084,1.059-3.13c0.195-0.521,0.402-1.045,0.634-1.582
				c0.118-0.271,0.244-0.547,0.388-0.836l0.24-0.458c0.081-0.151,0.214-0.361,0.324-0.53v-0.001l-0.229,0.821
				c-0.003-0.943,0.021-1.812,0.054-2.712c0.035-0.891,0.082-1.781,0.142-2.671c0.119-1.778,0.287-3.555,0.507-5.329
				c0.446-3.548,1.062-7.095,1.98-10.618c0.908-3.522,2.094-7.029,3.75-10.438c0.409-0.854,0.862-1.696,1.342-2.531l0.742-1.246
				l0.812-1.221c0.572-0.8,1.143-1.61,1.809-2.367c0.632-0.779,1.354-1.503,2.073-2.232l0.001,0l0.55-0.448l0.378-0.163
				c0.628-0.271,0.724-0.253,0.985-0.328c0.264-0.066,0.413-0.079,0.595-0.104l0.532-0.059l0.448-0.007
				c0.624-0.018,1.113,0.055,1.63,0.118c0.979,0.157,1.855,0.395,2.656,0.682c0.835,0.266,1.533,0.624,2.286,0.945
				c0.687,0.368,1.395,0.718,2.051,1.105l1.913,1.198l1.795,1.278c0.608,0.416,1.143,0.891,1.715,1.333
				c0.558,0.454,1.139,0.886,1.66,1.367c1.06,0.949,2.156,1.858,3.15,2.852c1.01,0.979,2.042,1.934,2.993,2.956
				c0.957,1.017,1.958,1.989,2.871,3.036l2.777,3.097l-2.352,2.369l-3.134-2.59c-1.031-0.877-2.129-1.661-3.187-2.493
				c-1.053-0.84-2.161-1.59-3.246-2.367c-1.074-0.796-2.208-1.474-3.31-2.2c-0.547-0.373-1.122-0.674-1.683-1.006
				c-0.566-0.314-1.117-0.677-1.691-0.95l-1.701-0.864l-1.703-0.737c-0.564-0.228-1.123-0.397-1.678-0.601
				c-0.537-0.126-1.097-0.322-1.591-0.383c-0.511-0.101-0.979-0.134-1.356-0.128c-0.166,0.019-0.358,0.018-0.418,0.06l-0.063,0.016
				c0.009,0.01,0.018,0.017,0.025,0.02c0.014,0.002-0.008,0.007,0.093-0.005c0.098-0.028,0.025,0.026,0.497-0.175l0.927-0.61
				l-0.001,0c-0.552,0.458-1.123,0.901-1.647,1.425c-0.549,0.49-1.046,1.062-1.554,1.624l-0.738,0.879l-0.701,0.929
				c-0.459,0.63-0.908,1.278-1.327,1.955c-1.698,2.693-3.104,5.687-4.279,8.803c-1.187,3.115-2.128,6.368-2.914,9.67
				c-0.39,1.652-0.733,3.32-1.03,4.998c-0.149,0.839-0.286,1.68-0.412,2.521c-0.122,0.833-0.238,1.701-0.322,2.496l-0.052,0.48
				l-0.178,0.341l0,0c0.005,0.065,0.012,0.081,0.006,0.17l-0.019,0.267l-0.034,0.645c-0.015,0.459-0.018,0.939-0.012,1.427
				c0.016,0.973,0.055,1.993,0.129,2.955L173,145.398z"/>
		</g>
		<g>
			<path fill="#604346" d="M214.577,120.432c0.023-0.012,0.047-0.098,0.333-0.385c0.139-0.138,0.31-0.309,0.511-0.509
				c0.206-0.2,0.412-0.339,0.665-0.541c0.25-0.185,0.523-0.425,0.834-0.618c0.314-0.188,0.654-0.39,1.019-0.607
				c0.724-0.477,1.584-0.8,2.522-1.217c0.932-0.463,1.979-0.692,3.08-1.049c1.1-0.386,2.276-0.555,3.495-0.793
				c0.609-0.113,1.229-0.228,1.856-0.344c0.626-0.07,1.264-0.115,1.904-0.173c0.642-0.054,1.287-0.109,1.937-0.165l0.975-0.083
				l0.244-0.021l0.062-0.005l0.153-0.003l0.119,0.001l0.474,0.005c1.263,0.014,2.525,0.027,3.769,0.041
				c0.605-0.019,1.276,0.082,1.921,0.148c0.645,0.072,1.282,0.144,1.908,0.213c1.263,0.089,2.431,0.409,3.544,0.65
				c0.556,0.133,1.099,0.227,1.614,0.389c0.514,0.175,1.009,0.345,1.485,0.507c0.473,0.17,0.931,0.301,1.353,0.488
				c0.419,0.197,0.816,0.384,1.189,0.56c0.75,0.319,1.37,0.728,1.879,1.04c0.514,0.287,0.894,0.642,1.156,0.828
				c0.269,0.211,0.441,0.384,0.435,0.373c0.486,0.405,0.552,1.126,0.147,1.612s-1.127,0.552-1.612,0.147
				c0,0-0.107-0.052-0.308-0.149c-0.252-0.104-0.568-0.282-1.064-0.451c-0.479-0.18-1.046-0.406-1.755-0.588
				c-0.345-0.1-0.713-0.206-1.1-0.317c-0.393-0.097-0.822-0.169-1.259-0.262c-0.438-0.089-0.893-0.183-1.363-0.279
				c-0.477-0.078-0.983-0.122-1.493-0.191c-1.025-0.129-2.103-0.283-3.211-0.299c-0.554-0.027-1.116-0.055-1.686-0.083
				c-0.57-0.029-1.126-0.073-1.767-0.039c-1.242,0.026-2.506,0.052-3.769,0.079l-0.474,0.01l-0.118,0.002l-0.029,0l-0.015,0
				c0.184-0.004,0.043,0,0.08-0.001l-0.057,0.005l-0.228,0.02l-0.909,0.076c-0.604,0.05-1.207,0.1-1.805,0.15
				c-0.598,0.046-1.189,0.105-1.777,0.137c-0.574,0.085-1.142,0.17-1.7,0.252c-1.108,0.188-2.218,0.272-3.194,0.538
				c-0.498,0.112-0.983,0.222-1.452,0.328c-0.481,0.081-0.92,0.207-1.33,0.349c-0.822,0.279-1.635,0.462-2.249,0.758
				c-0.647,0.263-1.214,0.486-1.616,0.728c-0.202,0.11-0.429,0.214-0.553,0.29c-0.127,0.076-0.236,0.139-0.324,0.191
				c-0.177,0.085-0.336,0.264-0.324,0.24c-0.548,0.586-1.468,0.617-2.054,0.069S214.029,121.018,214.577,120.432z"/>
		</g>
		<g>
			<path fill="#F2C77B" d="M257.965,171.91c0,0,0.605-1.619,4.368-3.166c4.055-1.667,6.632,0.166,6.632,0.166"/>
			<path fill="#604346" d="M256.971,171.475c0.011-0.018-0.01-0.008,0.067-0.172c0.036-0.072,0.08-0.162,0.133-0.268
				c0.046-0.076,0.099-0.163,0.157-0.261c0.118-0.205,0.273-0.392,0.454-0.626c0.181-0.233,0.402-0.438,0.642-0.694
				c0.245-0.233,0.521-0.456,0.813-0.709c0.297-0.23,0.618-0.447,0.952-0.687c0.334-0.235,0.69-0.421,1.052-0.642l0.273-0.16
				l0.138-0.081l0.018-0.01l0.009-0.005l0.134-0.051l0.032-0.015l0.066-0.03l0.53-0.242l0.53-0.242
				c0.094-0.039,0.163-0.082,0.276-0.118l0.368-0.104c0.487-0.126,0.999-0.276,1.466-0.342c0.459-0.046,0.909-0.093,1.341-0.113
				c0.436,0.019,0.853,0.042,1.239,0.073c0.389,0.075,0.745,0.145,1.062,0.206c0.321,0.104,0.601,0.193,0.831,0.268
				c0.245,0.109,0.438,0.195,0.57,0.254c0.188,0.109,0.289,0.168,0.289,0.168c1.125,0.8,1.389,2.361,0.588,3.486
				c-0.8,1.125-2.361,1.389-3.486,0.588c0,0,0.018,0.011,0.056,0.02c-0.029-0.027-0.07-0.066-0.124-0.115
				c-0.082-0.055-0.182-0.121-0.296-0.197c-0.136-0.062-0.29-0.135-0.461-0.224c-0.19-0.061-0.396-0.127-0.613-0.196
				c-0.238-0.038-0.489-0.078-0.748-0.119c-0.255-0.029-0.479-0.006-0.743-0.03l-0.198-0.014c-0.074,0.001-0.184,0.033-0.274,0.049
				l-0.57,0.116l-0.571,0.116l-0.071,0.014l-0.035,0.008l-0.005,0.001c-0.028,0.01,0.235-0.087,0.122-0.045l-0.008,0.002
				l-0.016,0.005l-0.124,0.039l-0.247,0.078c-0.324,0.108-0.67,0.194-0.965,0.315c-0.294,0.124-0.593,0.234-0.859,0.355
				c-0.247,0.133-0.501,0.252-0.712,0.375c-0.191,0.131-0.401,0.244-0.538,0.357c-0.138,0.112-0.279,0.212-0.35,0.291
				c-0.041,0.038-0.078,0.072-0.109,0.102c-0.012,0.01-0.024,0.016-0.037,0.021c-0.019-0.011-0.064,0.095-0.059,0.075
				c-0.24,0.55-0.881,0.8-1.43,0.559C256.979,172.664,256.729,172.023,256.971,171.475z"/>
		</g>
		<path fill="#604346" d="M241.669,185.756c0,0,1.03-2.188,2.999-2.692c2.667-0.683,5,1.332,5,1.332s-0.332,4.027-2.999,5.694
			C246.669,190.09,242.336,188.756,241.669,185.756z"/>
		<g>
			<path fill="#604346" d="M231.48,176.644c0.005,0.023-0.034-0.095-0.05-0.071c-0.01-0.001-0.021-0.002-0.026-0.006
				c-0.029-0.029-0.063-0.062-0.101-0.1c-0.141-0.155-0.444-0.39-0.831-0.643c-0.214-0.116-0.446-0.241-0.691-0.374
				c-0.269-0.112-0.552-0.23-0.845-0.353c-0.302-0.109-0.634-0.203-0.955-0.309l-0.243-0.078l-0.03-0.01l-0.016-0.005l-0.008-0.002
				c0.056,0.021-0.13-0.048,0.124,0.045h-0.005l-0.07-0.015l-0.142-0.029l-0.567-0.115c-0.378-0.079-0.794-0.179-1.003-0.123
				c-0.267,0.03-0.469-0.016-0.744,0.042c-0.264,0.053-0.519,0.065-0.746,0.129c-0.223,0.079-0.434,0.132-0.617,0.201
				c-0.173,0.083-0.331,0.159-0.471,0.228c-0.12,0.076-0.225,0.144-0.31,0.199c-0.059,0.052-0.104,0.092-0.136,0.119
				c0.029-0.003,0.042-0.01,0.042-0.01c-1.14,0.778-2.695,0.486-3.475-0.654c-0.778-1.14-0.486-2.695,0.654-3.475
				c0,0,0.097-0.054,0.277-0.154c0.129-0.056,0.317-0.137,0.558-0.24c0.229-0.08,0.501-0.162,0.814-0.256
				c0.312-0.074,0.663-0.135,1.042-0.203c0.38-0.046,0.792-0.059,1.222-0.081c0.428-0.005,0.874,0.058,1.33,0.096
				c0.447,0.031,0.973,0.2,1.456,0.316c0.55,0.124,0.856,0.295,1.21,0.455l0.526,0.241l0.394,0.177l0.272,0.162
				c0.362,0.219,0.717,0.419,1.054,0.641c0.33,0.24,0.648,0.472,0.951,0.692c0.287,0.258,0.56,0.501,0.811,0.726
				c0.481,0.505,0.848,0.967,1.071,1.381c0.055,0.103,0.104,0.194,0.146,0.273c0.048,0.115,0.089,0.213,0.121,0.292
				c0.07,0.182,0.047,0.162,0.058,0.183c0.195,0.566-0.105,1.185-0.673,1.38C232.294,177.512,231.676,177.211,231.48,176.644z"/>
		</g>
		<path fill="#DFAC71" d="M186.335,128.256c0,0,11.155-5.631,22.478-7.943c0,0-6.435-7.19-14.478-10.057
			C194.335,110.256,187.875,117.688,186.335,128.256z"/>
		<path fill="#DFAC71" d="M258.835,116.07c0,0,12.5,1.521,18.5,5.354c0,0-0.732-10.861-8.46-16.668
			C268.875,104.756,260.562,109.812,258.835,116.07z"/>
		<path fill="#DFAC71" d="M122.496,169c0,0-12.211,1.975-10.013,20.306C114.25,204.05,123.75,202.5,123.75,202.5
			s1.746-5.45,1.75-16.7S122.496,169,122.496,169z"/>
		<path fill="#DFAC71" d="M145.889,163.5c0,0-11.136,5.997-11.139,18.25c-0.004,17.25,13,20.75,13,20.75s1.036-13.75,1-20.125
			C148.705,174.348,145.889,163.5,145.889,163.5z"/>
		<path fill="#DFAC71" d="M167.221,163.088c0,0-10.25,8.131-10.25,18.875s9.75,20.95,9.75,20.95s5.279-10.485,5.529-19.991
			S167.221,163.088,167.221,163.088z"/>
	</g>
	<text transform="matrix(1 0 0 1 53.4116 273.6816)" fill="#604346" font-family="'ProximaNova-Bold'" font-size="69.75">catnap</text>
</g>
</svg>
